<?xml version="1.0" encoding="UTF-8" standalone="no"?>
<!-- Created with Inkscape (http://www.inkscape.org/) -->

<svg
   width="26.098875mm"
   height="25.772369mm"
   viewBox="0 0 26.098875 25.772369"
   version="1.1"
   id="svg1"
   xml:space="preserve"
   xmlns:inkscape="http://www.inkscape.org/namespaces/inkscape"
   xmlns:sodipodi="http://sodipodi.sourceforge.net/DTD/sodipodi-0.dtd"
   xmlns="http://www.w3.org/2000/svg"
   xmlns:svg="http://www.w3.org/2000/svg"><sodipodi:namedview
     id="namedview1"
     pagecolor="#ffffff"
     bordercolor="#666666"
     borderopacity="1.0"
     inkscape:showpageshadow="2"
     inkscape:pageopacity="0.0"
     inkscape:pagecheckerboard="0"
     inkscape:deskcolor="#d1d1d1"
     inkscape:document-units="mm" /><defs
     id="defs1" /><g
     inkscape:label="Слой 1"
     inkscape:groupmode="layer"
     id="layer1"
     transform="translate(-92.383204,-132.44546)"><ellipse
       style="fill:#57cec8;fill-opacity:1;stroke:none;stroke-width:0.0697132;stroke-dasharray:none;stroke-opacity:1"
       id="path12"
       cx="105.43264"
       cy="145.33119"
       rx="13.049435"
       ry="12.885733"
       inkscape:export-filename="path12.svg"
       inkscape:export-xdpi="96"
       inkscape:export-ydpi="96" /></g><g
     id="g11"
     transform="translate(-94.03685,-131.71786)"><path
       style="fill:#e4b096;fill-opacity:1;stroke:#000000;stroke-width:0.065;stroke-linecap:butt;stroke-linejoin:miter;stroke-dasharray:none;stroke-opacity:1"
       d="m 104.27549,139.59024 -0.29483,0.64272 -0.006,1.58029 h -0.35379 l 0.0118,-0.46583 -0.171,-0.0767 -0.1769,0.38327 0.22407,1.41519 0.61914,0.70759 0.32431,1.2206 0.93756,0.77835 0.72528,0.71938 0.22997,0.11794 0.24176,0.0354 0.34201,-0.006 0.46583,0.006 0.26534,-0.059 0.20639,-0.10024 0.82552,-0.79015 0.66042,-0.47762 0.21818,-0.33021 0.14741,-0.37738 0.11793,-0.73708 0.48352,-0.45404 0.37738,-0.99062 0.0177,-0.93757 -0.10614,-0.10024 -0.11793,-0.0118 c 0,0 -0.14152,0.21818 -0.16511,0.22407 -0.0236,0.006 -0.059,0.29483 -0.059,0.29483 l -0.29483,-0.0118 0.0295,-0.58966 0.0177,-0.5189 -0.0118,-0.55428 -0.059,-0.36559 -0.0885,-0.1828 -0.25945,0.0826 -0.74887,0.0825 -1.65694,0.0767 -1.12036,-0.0295 -1.2088,-0.11203 z"
       id="path1" /><path
       style="fill:#5f5c53;fill-opacity:1;stroke:#000000;stroke-width:0.065;stroke-linecap:butt;stroke-linejoin:miter;stroke-dasharray:none;stroke-opacity:1"
       d="m 103.37233,139.41613 0.12863,1.37979 0.14031,0.5788 v 0.45018 l 0.33326,-0.0175 -0.006,-1.56687 0.30402,-0.6665 -0.94129,-0.15786 z"
       id="path2" /><path
       style="fill:#5f5c53;fill-opacity:1;stroke:#000000;stroke-width:0.065;stroke-linecap:butt;stroke-linejoin:miter;stroke-dasharray:none;stroke-opacity:1"
       d="m 109.87951,139.57399 0.73082,-0.10523 -0.0351,0.71327 -0.076,0.79513 -0.16954,0.53788 -0.076,0.29817 -0.29233,-0.0117 0.076,-1.5961 z"
       id="path3" /><path
       style="fill:#383e4a;fill-opacity:1;stroke:#000000;stroke-width:0.065;stroke-linecap:butt;stroke-linejoin:miter;stroke-dasharray:none;stroke-opacity:1"
       d="m 103.30802,136.66243 -0.0117,2.74201 0.88282,0.16371 1.38563,0.1637 1.50256,0.0702 1.71303,-0.0585 0.87697,-0.0877 1.24531,-0.24555 0.0117,-3.0285 -4.64214,2.00536 z"
       id="path4" /><path
       style="fill:#383e4a;fill-opacity:1;stroke:#000000;stroke-width:0.065;stroke-linecap:butt;stroke-linejoin:miter;stroke-dasharray:none;stroke-opacity:1"
       d="m 99.553004,134.51293 6.722066,3.853 8.28477,-3.45612 -7.74733,-1.69499 z"
       id="path5" /><path
       style="fill:#eecb0d;fill-opacity:1;stroke:#000000;stroke-width:0.065;stroke-linecap:butt;stroke-linejoin:miter;stroke-dasharray:none;stroke-opacity:1"
       d="m 106.43299,133.8064 0.15785,0.0555 0.0409,0.14324 -0.0146,0.12278 -0.0672,0.0935 -4.7883,1.07284 -0.21925,0.19878 -0.0848,0.85944 0.1637,0.0935 0.0877,0.0848 c 0,0 0.0994,0.2134 0.10523,0.22509 0.006,0.0117 0.0526,0.28063 0.0526,0.28063 l 0.0175,0.81559 -0.0643,0.35079 -0.15493,0.40926 -0.2017,0.37418 -0.24848,0.33617 -0.42095,-0.6665 -0.11693,-0.30987 -0.10231,-0.39172 -0.0497,-0.35371 0.009,-0.4268 0.0935,-0.34786 0.0848,-0.17248 0.12862,-0.16662 0.17832,-0.11108 0.0702,-0.77175 0.0497,-0.21339 0.14032,-0.26017 0.19294,-0.16955 0.33325,-0.14032 z"
       id="path6" /><path
       style="fill:#e4b096;fill-opacity:1;stroke:#000000;stroke-width:0.065;stroke-linecap:butt;stroke-linejoin:miter;stroke-dasharray:none;stroke-opacity:1"
       d="m 104.96517,145.45469 v 1.00872 l 2.07532,1.86035 2.11667,-1.87689 0.008,-1.0666 -1.32292,1.12448 -0.43822,0.1571 -1.08314,-0.0331 -0.28938,-0.21497 z"
       id="path7" /><path
       style="fill:#e4f5ff;fill-opacity:1;stroke:#000000;stroke-width:0.05;stroke-linecap:butt;stroke-linejoin:miter;stroke-dasharray:none;stroke-opacity:1"
       d="m 107.0381,148.33208 -1.08745,1.61949 -1.29208,-2.68356 0.27479,-0.79512 z"
       id="path8" /><path
       style="fill:#e4f5ff;fill-opacity:1;stroke:#000000;stroke-width:0.05;stroke-linecap:butt;stroke-linejoin:miter;stroke-dasharray:none;stroke-opacity:1"
       d="m 107.04395,148.33208 1.11669,1.60779 1.30961,-2.64847 -0.29232,-0.85359 z"
       id="path9" /><path
       style="fill:#3d5873;fill-opacity:1;stroke:#000000;stroke-width:0.05;stroke-linecap:butt;stroke-linejoin:miter;stroke-dasharray:none;stroke-opacity:1"
       d="m 106.45138,149.26427 0.26045,0.57257 -0.26872,1.13895 0.5395,1.11828 0.66559,-1.16789 -0.26044,-1.10381 0.25424,-0.54363 -0.61391,-0.89504 z"
       id="path10" /><path
       style="fill:#252a30;fill-opacity:1;stroke:#000000;stroke-width:0.065;stroke-linecap:butt;stroke-linejoin:miter;stroke-dasharray:none;stroke-opacity:1"
       d="m 104.72288,147.28555 -4.852612,3.00511 -1.169302,2.75956 0.04677,1.40316 1.239466,0.93546 0.876058,0.50287 0.53053,0.26582 0.55578,0.24885 0.34076,0.14345 0.38791,0.14698 0.54811,0.17868 1.06898,0.30278 0.99275,0.17505 0.7539,0.0779 0.84406,0.0215 0.59225,0.005 0.99697,-0.0697 0.8061,-0.10909 0.99953,-0.20656 0.72789,-0.20888 1.01055,-0.35243 0.94558,-0.42419 0.63718,-0.33897 0.76438,-0.47562 1.04385,-0.78411 0.32741,-1.30962 -0.28064,-2.1983 -0.98221,-1.89427 -5.02801,-1.82411 -1.28039,2.70109 -1.1693,2.15152 z"
       id="path11"
       sodipodi:nodetypes="cccccccccccccccccccccccccccccccc" /></g></svg>
