<?xml version="1.0" encoding="UTF-8" standalone="no"?>
<!-- Created with Inkscape (http://www.inkscape.org/) -->

<svg
   width="210mm"
   height="297mm"
   viewBox="0 0 210 297"
   version="1.1"
   id="svg1"
   xml:space="preserve"
   inkscape:version="1.3.1 (91b66b0783, 2023-11-16)"
   sodipodi:docname="логотип.svg"
   inkscape:export-filename="логотип.svg"
   inkscape:export-xdpi="96"
   inkscape:export-ydpi="96"
   xmlns:inkscape="http://www.inkscape.org/namespaces/inkscape"
   xmlns:sodipodi="http://sodipodi.sourceforge.net/DTD/sodipodi-0.dtd"
   xmlns:xlink="http://www.w3.org/1999/xlink"
   xmlns="http://www.w3.org/2000/svg"
   xmlns:svg="http://www.w3.org/2000/svg"><sodipodi:namedview
     id="namedview1"
     pagecolor="#ffffff"
     bordercolor="#666666"
     borderopacity="1.0"
     inkscape:showpageshadow="2"
     inkscape:pageopacity="0.0"
     inkscape:pagecheckerboard="0"
     inkscape:deskcolor="#d1d1d1"
     inkscape:document-units="mm"
     inkscape:zoom="1.4142136"
     inkscape:cx="286.7318"
     inkscape:cy="326.68333"
     inkscape:window-width="1920"
     inkscape:window-height="1001"
     inkscape:window-x="-9"
     inkscape:window-y="-9"
     inkscape:window-maximized="1"
     inkscape:current-layer="layer1" /><defs
     id="defs1" /><g
     inkscape:label="Слой 1"
     inkscape:groupmode="layer"
     id="layer1"><ellipse
       style="fill:none;stroke:#a5a6d6;stroke-width:1.229;stroke-dasharray:none;stroke-opacity:1"
       id="path1"
       cx="-104.36667"
       cy="-92.637245"
       rx="34.891651"
       ry="35.291927"
       transform="scale(-1)" /><path
       style="fill:#002377;fill-opacity:1;stroke:none;stroke-width:0.264583px;stroke-linecap:butt;stroke-linejoin:miter;stroke-opacity:1"
       d="M 81.420265,85.005398 80.783434,84.41574 80.075841,83.165661 v -2.452987 l 1.037801,-1.69822 0.731179,-0.353798 1.108562,-0.448141 1.76898,-0.0236 1.415185,0.518901 0.872696,0.660421 0.259451,0.778351 0.141517,0.589659 -0.165105,1.698223 -0.02357,0.660418 0.542485,0.613246 -0.707591,0.943457 -0.09435,1.674635 -0.424555,0.306623 -0.99063,-0.07076 -0.424555,-0.306623 -0.227603,-0.06303 -0.0083,0.650447 0.387765,0.583734 0.08404,1.765353 0.766556,1.969466 v 3.325682 l 1.238287,0.02357 0.283038,-0.259451 1.827945,0.0118 0.365588,0.318415 0.0118,0.837319 -0.742974,1.120354 -1.910498,-0.03538 -0.719384,-0.271245 -0.05897,-0.247655 -0.695799,-0.04717 -0.558035,2.212956 -0.283528,0.275188 0.01667,0.892278 0.79221,1.734533 2.56009,4.06111 0.250171,2.82695 0.241832,1.37594 0.100071,2.88531 1.200822,1.67615 0.358579,0.95065 0.05004,0.89228 1.476012,-0.0167 0.291867,0.30021 0.325223,0.29186 0.200136,0.50035 0.0083,0.3419 -0.475327,0.3002 -0.558715,0.24184 h -2.927009 l -0.01667,-0.30021 -0.833904,0.0167 v 0.25017 H 85.58328 v -4.4798 l -0.875165,-1.17408 -0.517022,-2.01805 -0.917298,-2.61846 -0.617087,-1.6011 h -0.466987 l -0.416954,0.76719 -1.217502,1.96802 -1.084077,1.00068 -3.3523,3.63583 -0.78387,0.95065 -0.05003,0.66713 -2.968704,2.08476 0.06671,0.41696 0.567057,0.46698 -0.100071,0.65045 -0.283527,0.71716 -0.633767,0.36692 -1.41764,-0.96734 -1.117433,-1.58442 -0.01667,-0.81722 -1.300893,-1.31757 -0.250171,-0.61709 0.01667,-0.75052 0.950654,-0.33356 2.485038,-1.35093 0.08339,-0.75051 h 0.617088 l 0.08339,-0.55038 0.433631,-0.13342 1.984695,-2.35162 2.472116,-1.97389 0.353798,-0.79605 -0.05897,-1.78667 -0.218172,-0.5071 -1.886913,-0.42456 -1.108562,-2.901132 -0.07076,-3.396443 1.533115,-1.226492 0.471728,-0.09435 0.04717,-3.16058 2.901127,-4.127619 -1.444667,-1.42403 -0.08845,-0.412761 0.08845,-0.29778 0.200485,-0.285983 0.433401,-0.13857 0.409813,0.112035 1.506582,1.50953 1.347372,-0.778351 z"
       id="path2" /><path
       style="fill:#002377;fill-opacity:1;stroke:none;stroke-width:0.264583px;stroke-linecap:butt;stroke-linejoin:miter;stroke-opacity:1"
       d="m 97.801024,69.815754 -0.990629,-0.619141 -0.518901,-0.902181 -0.04717,-0.648626 -0.754766,-0.05896 -0.274248,-0.490821 -1.30089,-0.06671 -0.03336,-1.034042 -0.650444,-0.900618 0.96733,-0.817226 V 63.56027 l 1.100754,0.03336 0.416952,-0.650446 1.934662,0.33356 0.06671,0.750517 0.700479,0.150101 0.817229,-0.416952 0.116745,-0.08339 1.617773,-0.06671 0.60042,0.250172 0.76719,0.333562 0.6838,0.80055 0.2335,0.416952 -0.0167,2.334934 0.73383,0.617091 -0.63376,0.533699 0.1501,0.800549 -0.0667,0.917295 -0.55038,0.717158 -2.00137,0.01667 0.0667,0.984009 2.78524,1.117434 0.60041,0.300204 0.13343,0.650446 0.35024,1.534385 0.56705,1.6011 -0.0333,1.017365 2.60178,1.284213 -0.75051,2.485038 0.63377,0.18346 0.46698,0.61709 0.0167,1.400961 -0.56705,0.883938 -1.48435,-0.100068 -0.33356,0.950651 -1.28422,-0.667123 -0.05,2.668497 0.91729,2.2849 0.86726,3.285588 0.7672,3.318943 0.0834,3.869327 -3.33563,4.4197 -2.46835,3.51908 -0.0167,3.58579 0.6838,1.71784 0.5337,1.25086 0.70048,0.7672 0.6838,0.0667 0.46699,0.1501 0.11675,0.46699 -0.21682,0.31687 -0.75051,0.50034 -4.553127,-0.0834 -0.450308,-0.20013 -0.350239,-0.11675 -0.266851,0.0167 -0.05004,0.26686 -1.13411,-0.0167 -0.116747,-0.88394 -0.400275,-0.95065 0.350242,-0.50035 0.51702,-0.31688 -0.08339,-0.68381 -1.817913,-2.06808 -0.06671,-0.95065 -1.267537,-0.13343 -0.984009,-1.3676 3.385656,-3.01874 0.700482,0.0334 v -1.10076 l -0.458647,-0.85892 0.225152,-4.84499 0.266851,-0.03336 V 92.69693 L 96.733087,91.863027 95.398838,90.428708 95.498906,87.326582 93.897809,87.126443 93.697673,85.425278 91.929794,85.158427 91.462807,84.324522 91.1626,83.390548 v -5.537131 l 0.567055,-0.400275 1.300893,-0.300205 0.600411,-0.466986 0.333562,-2.068087 0.733838,-1.034042 0.933974,-1.000686 0.900618,-0.06671 0.03336,-1.034044 1.300893,-0.266849 z"
       id="path3" /><path
       style="fill:#002377;fill-opacity:1;stroke:none;stroke-width:0.264583px;stroke-linecap:butt;stroke-linejoin:miter;stroke-opacity:1"
       d="m 117.0803,52.736173 -4.23623,0.233492 5.65387,-4.219562 7.25498,-0.400272 -0.31688,0.517019 0.6097,0.729462 0.46583,0.766556 0.0767,0.507108 0.14742,-0.07076 0.11793,0.831422 0.18869,0.09435 0.0767,1.66874 0.18869,0.365588 -0.0531,0.925766 -0.15332,0.0118 -0.0649,0.182795 -0.42456,0.07666 -0.0826,-1.969463 -0.0708,-0.229968 -0.0354,-1.586185 -0.18279,-0.212277 -0.0531,-0.796042 -0.22407,-0.518901 c 0,0 -0.42456,-0.395073 -0.47762,-0.412763 -0.0531,-0.0177 -0.3597,-0.318415 -0.3597,-0.318415 l -1.78667,1.185217 v 0.50121 l 0.26224,0.386237 0.2335,0.658786 0.0917,1.667811 0.47532,-0.108408 -0.0417,1.067398 -0.21682,0.125085 -0.05,1.534387 -0.24183,0.633767 -0.50869,0.542039 0.0167,0.683802 0.70882,0.758854 2.58511,-1.617776 0.33356,0.291867 1.05072,-0.05003 4.53645,-3.102128 0.4503,-0.416952 0.34191,-0.425291 0.24183,-0.833906 0.3002,-4.836649 0.16678,-0.09173 0.0167,-0.225156 0.5754,-0.025 V 46.51526 l -0.22515,-0.0417 c 0,0 -0.0334,-0.408614 -0.0667,-0.44197 -0.0334,-0.03336 -0.26685,-0.158443 -0.26685,-0.158443 l -0.0417,-0.633767 -6.61287,-3.010398 -0.31689,0.116748 0.26685,-1.184148 1.05072,-0.650444 -0.0333,0.250172 5.50377,2.735209 0.55038,-0.06672 0.70048,-0.233492 1.16747,0.133424 0.90062,0.667126 0.31688,0.683802 v 0.850583 l 4.87001,1.817912 -0.0667,1.200825 -0.26684,0.466987 -4.05279,-1.784556 -0.38359,-0.03336 -0.3836,0.1501 -0.26685,0.416955 -0.0167,0.300204 0.28353,1.23418 0.25017,0.600411 0.15011,0.433631 -0.13343,0.917298 -0.36692,0.567055 -0.13342,0.533699 0.0167,1.40096 c 0,0 0.0667,1.067401 0.0834,1.15079 0.0167,0.08339 0.0334,0.683802 0.0334,0.683802 0,0 -0.05,0.333563 -0.0667,0.517022 -0.0167,0.18346 -0.16678,0.633767 -0.20014,0.733838 -0.0334,0.100068 -0.28353,0.550376 -0.35024,0.667123 -0.0667,0.116747 -0.28353,0.366919 -0.33356,0.550378 -0.05,0.18346 -0.10007,0.800548 -0.10007,0.800548 l -0.26685,0.383598 0.13342,1.617776 0.36692,1.801236 c 0,0 0.05,0.767191 0.05,0.883938 0,0.116748 -0.05,1.851271 -0.05,1.851271 l -0.3002,2.184831 0.18346,2.068084 0.3002,1.817915 0.21682,0.717159 0.40027,0.984006 0.28353,0.917297 0.0834,0.767194 c 0,0 0.0167,0.667123 0,0.733835 -0.0167,0.06671 -0.45031,0.817229 -0.45031,0.817229 0,0 -0.28353,0.633767 -0.40027,0.767192 -0.11675,0.133424 -0.40028,0.517022 -0.51702,0.583734 -0.11675,0.06671 -0.65045,0.517022 -0.65045,0.517022 l -0.78387,-0.28353 c 0,0 -0.23349,-0.500343 -0.3836,-0.617088 -0.1501,-0.116747 -0.75051,-0.350242 -0.75051,-0.350242 0,0 -0.31689,0.06671 -0.43363,0.166783 -0.11675,0.100068 -0.56706,0.500343 -0.56706,0.500343 l -0.26685,0.283527 -0.5337,-0.01667 -0.55037,0.667125 -0.45031,1.484352 -0.85059,12.308441 -0.46698,11.291078 -0.0167,3.06878 0.26685,3.93603 0.21681,0.88394 -0.23349,0.60041 -0.35024,0.2335 -0.6838,-0.30021 -0.48367,0.0167 -0.0167,1.10075 1.81791,1.73452 0.95065,1.08408 0.05,0.73384 c 0,0 -0.35025,0.55038 -0.40028,0.61709 -0.05,0.0667 -0.33356,0.3002 -0.46699,0.35024 -0.13342,0.05 -0.81722,0.16678 -0.96733,0.18346 -0.1501,0.0167 -0.6838,-0.0667 -0.8339,-0.10007 -0.1501,-0.0334 -0.46699,-0.0667 -0.60041,-0.20014 -0.13343,-0.13342 -0.5337,-0.50034 -0.5337,-0.50034 0,0 -0.33356,-0.40028 -0.50035,-0.58373 -0.16678,-0.18346 -0.4503,-0.51703 -0.51702,-0.51703 -0.0667,0 -0.43363,-0.25017 -0.43363,-0.25017 l -0.13342,-0.0333 -0.13343,0.40027 -0.88394,-0.71716 -0.26685,-0.43363 -0.23349,-1.98469 -0.80055,-1.10076 c 0,0 -0.05,-0.73384 -0.0667,-0.86726 -0.0167,-0.13342 -0.61709,-0.66713 -0.61709,-0.66713 0,0 -0.86726,-0.31688 -1.0674,-0.38359 -0.20014,-0.0667 -0.75052,-0.10007 -0.75052,-0.10007 0,0 -0.50034,0.13342 -0.66712,0.3836 -0.16678,0.25017 -0.18346,1.11743 -0.18346,1.11743 l -0.05,3.13548 -0.15011,0.11675 -0.26685,0.20014 c 0,0 0,0.0834 -0.3002,0.0834 -0.30021,0 -0.28353,0.0667 -0.5337,0 -0.25017,-0.0667 -0.55038,0.18346 -0.55038,0.18346 l -1.93466,2.05141 -0.73384,0.13342 c 0,0 -1.56774,-0.11675 -1.63445,-0.11675 -0.0667,0 -0.9173,-0.73383 -0.9173,-0.73383 l 0.0334,-0.55038 0.25017,-0.36692 2.88532,-3.2022 -0.05,-0.25017 -0.66712,-0.11675 -1.10076,0.0667 0.30021,-5.60385 0.73383,-5.30363 0.65045,-1.717852 -0.16678,-0.833906 -0.25017,-2.768566 -0.50035,-4.219561 -0.3002,-1.76788 0.13342,-1.167466 0.2335,-1.667812 -2.36829,0.366919 -0.70049,-0.233494 -0.13342,-0.466987 0.0334,-1.534385 -0.96733,-0.06671 -0.93398,-0.733838 1.10076,-6.87138 0.80055,-6.004118 0.90061,-3.669183 0.56706,-1.400961 0.80055,-1.734524 1.73452,-2.701851 1.0674,-1.434319 0.93397,-0.600411 1.20083,-0.03336 1.03404,-0.300207 0.16678,-0.700479 v -0.466987 l -0.0667,-0.400275 -1.13411,-1.100754 -0.5337,-0.567058 -1.04238,-0.583731 -0.0513,-1.370634 0.008,-0.2338 -0.35079,-0.01169 z"
       id="path4" /><text
       xml:space="preserve"
       style="font-style:normal;font-variant:normal;font-weight:normal;font-stretch:normal;font-size:6.35px;line-height:1.25;font-family:'Berlin Sans FB';-inkscape-font-specification:'Berlin Sans FB, Normal';font-variant-ligatures:normal;font-variant-caps:normal;font-variant-numeric:normal;font-variant-east-asian:normal;letter-spacing:0px;word-spacing:0px;fill:#e16c2a;fill-opacity:1;stroke:none;stroke-width:0.264583"
       id="text4"
       transform="rotate(-18.455356,99.823931,96.442638)"><textPath
         xlink:href="#path1"
         id="textPath8"><tspan
           id="tspan4"
           style="font-style:normal;font-variant:normal;font-weight:normal;font-stretch:normal;font-size:6.35px;font-family:'Berlin Sans FB';-inkscape-font-specification:'Berlin Sans FB, Normal';font-variant-ligatures:normal;font-variant-caps:normal;font-variant-numeric:normal;font-variant-east-asian:normal;fill:#e16c2a;fill-opacity:1;stroke-width:0.264583"><tspan
   style="font-style:normal;font-variant:normal;font-weight:normal;font-stretch:normal;font-size:6.35px;font-family:'Berlin Sans FB';-inkscape-font-specification:'Berlin Sans FB, Normal';font-variant-ligatures:normal;font-variant-caps:normal;font-variant-numeric:normal;font-variant-east-asian:normal;fill:#002377;fill-opacity:1"
   id="tspan5">B</tspan>e <tspan
   style="font-style:normal;font-variant:normal;font-weight:normal;font-stretch:normal;font-size:6.35px;font-family:'Berlin Sans FB';-inkscape-font-specification:'Berlin Sans FB, Normal';font-variant-ligatures:normal;font-variant-caps:normal;font-variant-numeric:normal;font-variant-east-asian:normal;fill:#002377;fill-opacity:1"
   id="tspan6">E</tspan>ducated <tspan
   style="font-style:normal;font-variant:normal;font-weight:normal;font-stretch:normal;font-size:6.35px;font-family:'Berlin Sans FB';-inkscape-font-specification:'Berlin Sans FB, Normal';font-variant-ligatures:normal;font-variant-caps:normal;font-variant-numeric:normal;font-variant-east-asian:normal;fill:#002377;fill-opacity:1"
   id="tspan7">S</tspan>mart <tspan
   style="font-style:normal;font-variant:normal;font-weight:normal;font-stretch:normal;font-size:6.35px;font-family:'Berlin Sans FB';-inkscape-font-specification:'Berlin Sans FB, Normal';font-variant-ligatures:normal;font-variant-caps:normal;font-variant-numeric:normal;font-variant-east-asian:normal;fill:#002377;fill-opacity:1"
   id="tspan8">T</tspan>alented</tspan></textPath></text></g></svg>
